<svg width="48" height="48" viewBox="0 0 48 48" fill="none" xmlns="http://www.w3.org/2000/svg">
<path d="M0 24C0 34.246 6.422 42.994 15.46 46.436C15.24 44.562 15.006 41.472 15.51 39.304C15.944 37.44 18.312 27.428 18.312 27.428C18.312 27.428 17.598 25.998 17.598 23.88C17.598 20.56 19.522 18.08 21.92 18.08C23.96 18.08 24.944 19.61 24.944 21.444C24.944 23.494 23.638 26.558 22.964 29.4C22.402 31.778 24.158 33.718 26.502 33.718C30.748 33.718 34.014 29.24 34.014 22.776C34.014 17.054 29.902 13.056 24.032 13.056C17.236 13.056 13.246 18.154 13.246 23.424C13.246 25.478 14.036 27.678 15.024 28.876C15.1082 28.9665 15.1677 29.0771 15.1968 29.1973C15.2259 29.3174 15.2235 29.443 15.19 29.562C15.008 30.318 14.604 31.94 14.526 32.272C14.42 32.708 14.18 32.802 13.726 32.59C10.742 31.202 8.878 26.84 8.878 23.336C8.878 15.798 14.352 8.878 24.662 8.878C32.95 8.878 39.392 14.784 39.392 22.676C39.392 30.91 34.202 37.538 26.994 37.538C24.572 37.538 22.298 36.278 21.518 34.792C21.518 34.792 20.32 39.356 20.03 40.472C19.466 42.64 17.902 45.384 16.932 46.942C19.168 47.63 21.54 48 24 48C37.254 48 48 37.254 48 24C48 10.746 37.254 0 24 0C10.746 0 0 10.746 0 24Z" fill="white"/>
</svg>
